<svg width="54" height="50" viewBox="0 0 54 50" fill="none" xmlns="http://www.w3.org/2000/svg">
<path d="M4.5 14.5834V13.5417C4.20163 13.5417 3.91548 13.6514 3.7045 13.8468C3.49353 14.0421 3.375 14.3071 3.375 14.5834H4.5ZM29.25 14.5834H30.375C30.375 14.3071 30.2565 14.0421 30.0455 13.8468C29.8345 13.6514 29.5484 13.5417 29.25 13.5417V14.5834ZM29.25 18.75V17.7084C28.9516 17.7084 28.6655 17.8181 28.4545 18.0135C28.2435 18.2088 28.125 18.4738 28.125 18.75H29.25ZM4.5 15.625H29.25V13.5417H4.5V15.625ZM28.125 14.5834V39.5834H30.375V14.5834H28.125ZM5.625 35.4167V14.5834H3.375V35.4167H5.625ZM29.25 19.7917H40.5V17.7084H29.25V19.7917ZM48.375 27.0834V35.4167H50.625V27.0834H48.375ZM30.375 39.5834V18.75H28.125V39.5834H30.375ZM42.885 41.7917C42.2522 42.3769 41.3944 42.7056 40.5 42.7056C39.6056 42.7056 38.7478 42.3769 38.115 41.7917L36.522 43.2667C37.0443 43.7505 37.6645 44.1342 38.3471 44.3961C39.0296 44.6579 39.7612 44.7927 40.5 44.7927C41.2388 44.7927 41.9704 44.6579 42.6529 44.3961C43.3355 44.1342 43.9557 43.7505 44.478 43.2667L42.8873 41.7938L42.885 41.7917ZM38.115 37.375C38.7478 36.7898 39.6056 36.4611 40.5 36.4611C41.3944 36.4611 42.2522 36.7898 42.885 37.375L44.478 35.9C43.9557 35.4162 43.3355 35.0325 42.6529 34.7706C41.9704 34.5088 41.2388 34.3741 40.5 34.3741C39.7612 34.3741 39.0296 34.5088 38.3471 34.7706C37.6645 35.0325 37.0443 35.4162 36.522 35.9L38.1127 37.3729L38.115 37.375ZM15.885 41.7917C15.2522 42.3769 14.3944 42.7056 13.5 42.7056C12.6056 42.7056 11.7478 42.3769 11.115 41.7917L9.522 43.2667C10.0443 43.7505 10.6645 44.1342 11.3471 44.3961C12.0296 44.6579 12.7612 44.7927 13.5 44.7927C14.2388 44.7927 14.9704 44.6579 15.6529 44.3961C16.3355 44.1342 16.9557 43.7505 17.478 43.2667L15.8872 41.7938L15.885 41.7917ZM11.115 37.375C11.7478 36.7898 12.6056 36.4611 13.5 36.4611C14.3944 36.4611 15.2522 36.7898 15.885 37.375L17.478 35.9C16.9557 35.4162 16.3355 35.0325 15.6529 34.7706C14.9704 34.5088 14.2388 34.3741 13.5 34.3741C12.7612 34.3741 12.0296 34.5088 11.3471 34.7706C10.6645 35.0325 10.0443 35.4162 9.522 35.9L11.1128 37.3729L11.115 37.375ZM42.885 37.375C43.5465 37.9834 43.875 38.7813 43.875 39.5834H46.125C46.125 38.2521 45.576 36.9167 44.478 35.9L42.8873 37.3729L42.885 37.375ZM43.875 39.5834C43.875 40.3854 43.5465 41.1834 42.885 41.7917L44.478 43.2667C45.0009 42.7834 45.4156 42.2092 45.6982 41.5771C45.9808 40.945 46.1259 40.2675 46.125 39.5834H43.875ZM36 38.5417H29.25V40.625H36V38.5417ZM38.115 41.7917C37.8009 41.5022 37.5517 41.1581 37.3818 40.7791C37.2119 40.4001 37.1247 39.9937 37.125 39.5834H34.875C34.875 40.9146 35.424 42.25 36.522 43.2667L38.1127 41.7938L38.115 41.7917ZM37.125 39.5834C37.125 38.7813 37.4535 37.9834 38.115 37.375L36.522 35.9C35.9991 36.3833 35.5844 36.9575 35.3018 37.5896C35.0192 38.2217 34.8741 38.8992 34.875 39.5834H37.125ZM11.115 41.7917C10.8009 41.5022 10.5517 41.1581 10.3818 40.7791C10.2119 40.4001 10.1247 39.9937 10.125 39.5834H7.875C7.875 40.9146 8.424 42.25 9.522 43.2667L11.1128 41.7938L11.115 41.7917ZM10.125 39.5834C10.125 38.7813 10.4535 37.9834 11.115 37.375L9.522 35.9C8.9991 36.3833 8.58444 36.9575 8.3018 37.5896C8.01917 38.2217 7.87413 38.8992 7.875 39.5834H10.125ZM29.25 38.5417H18V40.625H29.25V38.5417ZM15.885 37.375C16.5465 37.9834 16.875 38.7813 16.875 39.5834H19.125C19.125 38.2521 18.576 36.9167 17.478 35.9L15.8872 37.3729L15.885 37.375ZM16.875 39.5834C16.875 40.3854 16.5465 41.1834 15.885 41.7917L17.478 43.2667C18.0009 42.7834 18.4156 42.2092 18.6982 41.5771C18.9808 40.945 19.1259 40.2675 19.125 39.5834H16.875ZM48.375 35.4167C48.375 36.2455 48.0194 37.0403 47.3865 37.6264C46.7535 38.2124 45.8951 38.5417 45 38.5417V40.625C46.4918 40.625 47.9226 40.0763 48.9775 39.0995C50.0324 38.1228 50.625 36.798 50.625 35.4167H48.375ZM40.5 19.7917C42.5886 19.7917 44.5916 20.5599 46.0685 21.9274C47.5453 23.2948 48.375 25.1495 48.375 27.0834H50.625C50.625 24.5969 49.5583 22.2124 47.6595 20.4542C45.7607 18.6961 43.1853 17.7084 40.5 17.7084V19.7917ZM3.375 35.4167C3.375 36.798 3.96763 38.1228 5.02252 39.0995C6.07742 40.0763 7.50816 40.625 9 40.625V38.5417C8.10489 38.5417 7.24645 38.2124 6.61351 37.6264C5.98058 37.0403 5.625 36.2455 5.625 35.4167H3.375Z" fill="#F7763D"/>
<path d="M16.875 12.5C16.875 10.8424 16.1638 9.25269 14.898 8.08058C13.6321 6.90848 11.9152 6.25 10.125 6.25C9.52826 6.25 8.95597 6.46949 8.53401 6.86019C8.11205 7.25089 7.875 7.7808 7.875 8.33333C7.875 9.99094 8.58616 11.5806 9.85203 12.7528C11.1179 13.9249 12.8348 14.5833 14.625 14.5833H16.875M16.875 12.5V14.5833M16.875 12.5C16.875 10.8424 17.5862 9.25269 18.852 8.08058C20.1179 6.90848 21.8348 6.25 23.625 6.25C24.2217 6.25 24.794 6.46949 25.216 6.86019C25.6379 7.25089 25.875 7.7808 25.875 8.33333C25.875 9.99094 25.1638 11.5806 23.898 12.7528C22.6321 13.9249 20.9152 14.5833 19.125 14.5833H16.875" stroke="#F7763D" stroke-linejoin="round"/>
</svg>
