<svg width="45" height="45" viewBox="0 0 45 45" fill="none" xmlns="http://www.w3.org/2000/svg">
<path fill-rule="evenodd" clip-rule="evenodd" d="M30.6262 3.75C36.9806 3.75 41.25 8.20875 41.25 14.8425V30.1575C41.25 36.7912 36.9806 41.25 30.6244 41.25H14.3719C8.0175 41.25 3.75 36.7912 3.75 30.1575V14.8425C3.75 8.20875 8.0175 3.75 14.3719 3.75H30.6262ZM30.6262 6.5625H14.3719C9.62813 6.5625 6.5625 9.81187 6.5625 14.8425V30.1575C6.5625 35.1881 9.62813 38.4375 14.3719 38.4375H30.6244C35.37 38.4375 38.4375 35.1881 38.4375 30.1575V14.8425C38.4375 9.81187 35.37 6.5625 30.6262 6.5625ZM30.1678 17.0569C30.7172 17.6062 30.7172 18.495 30.1678 19.0444L21.2691 27.9431C20.9953 28.2188 20.6353 28.3556 20.2753 28.3556C19.9172 28.3556 19.5553 28.2188 19.2816 27.9431L14.8303 23.4937C14.2809 22.9444 14.2809 22.0556 14.8303 21.5063C15.3797 20.9569 16.2684 20.9569 16.8178 21.5063L20.2753 24.96L28.1803 17.0569C28.7297 16.5075 29.6184 16.5075 30.1678 17.0569Z" fill="#F7763D"/>
</svg>
