<svg width="72" height="72" viewBox="0 0 72 72" fill="none" xmlns="http://www.w3.org/2000/svg">
<path d="M48.375 27C51.48 27 54 29.6325 54 31.5C54 32.6935 53.5259 33.8381 52.682 34.682C51.8381 35.5259 50.6935 36 49.5 36H47.25C47.9175 36 48.57 35.8021 49.125 35.4312C49.6801 35.0604 50.1126 34.5333 50.3681 33.9166C50.6235 33.2999 50.6904 32.6213 50.5602 31.9666C50.4299 31.3119 50.1085 30.7105 49.6365 30.2385C49.1645 29.7665 48.5631 29.4451 47.9084 29.3148C47.2537 29.1846 46.5751 29.2515 45.9584 29.5069C45.3417 29.7624 44.8146 30.1949 44.4438 30.75C44.0729 31.305 43.875 31.9575 43.875 32.625C43.875 33.5201 44.2306 34.3786 44.8635 35.0115C45.4965 35.6444 46.3549 36 47.25 36H42.75C42.75 31.6463 45.27 27 48.375 27ZM23.625 27C26.73 27 29.25 31.6463 29.25 36H24.75C25.4175 36 26.07 35.8021 26.625 35.4312C27.1801 35.0604 27.6126 34.5333 27.8681 33.9166C28.1235 33.2999 28.1904 32.6213 28.0602 31.9666C27.9299 31.3119 27.6085 30.7105 27.1365 30.2385C26.6645 29.7665 26.0631 29.4451 25.4084 29.3148C24.7537 29.1846 24.0751 29.2515 23.4584 29.5069C22.8417 29.7624 22.3146 30.1949 21.9438 30.75C21.5729 31.305 21.375 31.9575 21.375 32.625C21.375 33.5201 21.7306 34.3786 22.3635 35.0115C22.9964 35.6444 23.8549 36 24.75 36H22.5C21.3065 36 20.1619 35.5259 19.318 34.682C18.4741 33.8381 18 32.6935 18 31.5C18 29.6325 20.52 27 23.625 27Z" fill="#675235"/>
<path d="M50.625 43.875L50.6475 43.74C51.0075 43.8333 51.3782 43.8787 51.75 43.875C53.3106 43.8528 54.8644 43.6643 56.385 43.3125C56.6376 43.2547 56.8999 43.2543 57.1526 43.3115C57.4053 43.3687 57.6419 43.482 57.8449 43.6429C58.048 43.8038 58.2123 44.0083 58.3257 44.2413C58.439 44.4742 58.4986 44.7297 58.5 44.9887V45C58.5 45 62.0325 44.2912 63.5063 41.76C63.0881 43.048 62.5058 44.2769 61.7738 45.4162C60.8851 46.8121 59.7801 48.0576 58.5 49.1062C56.617 50.7309 54.2355 51.6637 51.75 51.75H41.85C42.4238 51.4237 42.75 51.0412 42.75 50.625C47.7225 50.625 50.625 47.61 50.625 43.875ZM10.2263 45.4162C9.4898 44.2794 8.90723 43.0499 8.49377 41.76C9.96752 44.2912 13.5 45 13.5 45V44.9887C13.5009 44.7306 13.5598 44.4759 13.6723 44.2435C13.7848 44.0112 13.948 43.807 14.1499 43.6461C14.3518 43.4852 14.5873 43.3717 14.8389 43.314C15.0905 43.2563 15.3519 43.2557 15.6038 43.3125C17.1283 43.6635 18.6858 43.852 20.25 43.875C20.6219 43.8787 20.9926 43.8333 21.3525 43.74L21.375 43.875C21.375 47.61 24.2775 50.625 29.25 50.625C29.25 51.0412 29.5763 51.4237 30.15 51.75H20.25C17.7645 51.6637 15.383 50.7309 13.5 49.1062C12.22 48.0576 11.1149 46.8121 10.2263 45.4162Z" fill="#D5CBC1"/>
<path d="M36 43.875C36.2224 43.8733 36.4422 43.8277 36.6468 43.7409C36.8515 43.654 37.0369 43.5275 37.1925 43.3687L39.375 41.625L42.75 36L47.25 40.5C47.527 41.2661 47.978 41.9575 48.5676 42.5197C49.1571 43.082 49.8691 43.4997 50.6475 43.74L50.625 43.875C50.625 47.61 47.7225 50.625 42.75 50.625C38.25 50.625 36 46.125 36 46.125V43.875ZM36 43.875V46.125C36 46.125 33.75 50.625 29.25 50.625C24.2775 50.625 21.375 47.61 21.375 43.875L21.3525 43.74C22.1309 43.4997 22.8429 43.082 23.4325 42.5197C24.0221 41.9575 24.4731 41.2661 24.75 40.5L29.25 36L32.625 41.625L34.8075 43.3687C34.9632 43.5275 35.1486 43.654 35.3533 43.7409C35.5579 43.8277 35.7777 43.8733 36 43.875Z" fill="#F2EFE8"/>
<path d="M39.375 27V41.625C39.375 40.6575 37.8675 39.375 36 39.375C34.1325 39.375 32.625 40.6575 32.625 41.625V27L36 22.5L39.375 27Z" fill="#BFB6AD"/>
<path d="M36 12.375H41.625L39.375 27L36 22.5L32.625 27L30.375 12.375H36Z" fill="#D5CBC1"/>
<path d="M24.75 36C26.614 36 28.125 34.489 28.125 32.625C28.125 30.761 26.614 29.25 24.75 29.25C22.886 29.25 21.375 30.761 21.375 32.625C21.375 34.489 22.886 36 24.75 36Z" fill="#10120D"/>
<path d="M47.25 36C49.114 36 50.625 34.489 50.625 32.625C50.625 30.761 49.114 29.25 47.25 29.25C45.386 29.25 43.875 30.761 43.875 32.625C43.875 34.489 45.386 36 47.25 36Z" fill="#10120D"/>
<path d="M66.375 61.8862V65.25C63.5962 65.2835 60.877 66.0604 58.5 67.5C58.5 64.125 66.375 61.875 66.375 61.875V61.8862ZM13.5 67.5C11.123 66.0604 8.4038 65.2835 5.625 65.25V61.875C5.625 61.875 13.5 64.125 13.5 67.5Z" fill="#514B3F"/>
<path d="M66.375 61.875C66.3743 58.8976 65.8251 55.9459 64.755 53.1675L64.2038 51.7162L64.125 51.75C64.125 61.695 51.5475 67.5 36 67.5C20.4525 67.5 7.875 61.695 7.875 51.75L7.79625 51.7162L7.245 53.1675C6.17488 55.9459 5.62571 58.8976 5.625 61.875C5.625 61.875 13.5 64.125 13.5 67.5C11.123 66.0604 8.4038 65.2835 5.625 65.25V70.875H66.375V65.25C63.5962 65.2835 60.877 66.0604 58.5 67.5C58.5 64.125 66.375 61.875 66.375 61.875Z" fill="#DBD6D0"/>
<path d="M64.2038 51.7162L64.125 51.75C64.125 61.695 51.5475 67.5 36 67.5C20.4525 67.5 7.87501 61.695 7.87501 51.75L7.79626 51.7162L10.2263 45.4162C11.1149 46.8121 12.22 48.0576 13.5 49.1062V50.49C13.5121 51.5007 13.7858 52.491 14.2944 53.3644C14.8031 54.2378 15.5294 54.9646 16.4025 55.4737C20.4638 57.9262 28.2038 61.875 36 61.875C43.7963 61.875 51.5363 57.9262 55.5975 55.4737C56.4706 54.9646 57.1969 54.2378 57.7056 53.3644C58.2143 52.491 58.488 51.5007 58.5 50.49V49.1062C59.78 48.0576 60.8851 46.8121 61.7738 45.4162L64.2038 51.7162Z" fill="#D5CBC1"/>
<path d="M58.5 49.1063V50.49C58.488 51.5007 58.2143 52.491 57.7056 53.3644C57.1969 54.2378 56.4706 54.9646 55.5975 55.4738C51.5363 57.9263 43.7963 61.875 36 61.875C28.2038 61.875 20.4638 57.9263 16.4025 55.4738C15.5294 54.9646 14.8031 54.2378 14.2944 53.3644C13.7858 52.491 13.5121 51.5007 13.5 50.49V49.1063C15.383 50.7309 17.7645 51.6637 20.25 51.75H30.15C31.9841 52.5808 33.9886 52.9662 36 52.875C38.0114 52.9662 40.0159 52.5808 41.85 51.75H51.75C54.2355 51.6637 56.617 50.7309 58.5 49.1063ZM47.25 40.5L42.75 36H49.5C50.6935 36 51.8381 35.5259 52.682 34.682C53.5259 33.8381 54 32.6935 54 31.5C54 29.6325 51.48 27 48.375 27C45.27 27 42.75 31.6463 42.75 36L39.375 41.625V27L41.625 12.375H43.875L62.1338 1.71C62.698 1.32722 63.3645 1.12335 64.0463 1.125H64.125L49.5 13.5C51.75 14.625 58.5 20.25 58.5 23.9288C59.5691 24.5621 60.4716 25.4414 61.1325 26.4938C63.2352 29.8963 64.277 33.848 64.125 37.845C64.1269 37.9277 64.1231 38.0104 64.1138 38.0925C64.0856 39.3376 63.8811 40.5724 63.5063 41.76C62.0325 44.2912 58.5 45 58.5 45V44.9888C58.4986 44.7297 58.439 44.4742 58.3257 44.2413C58.2123 44.0083 58.048 43.8038 57.8449 43.6429C57.6419 43.482 57.4053 43.3687 57.1526 43.3115C56.8999 43.2543 56.6376 43.2547 56.385 43.3125C54.8644 43.6643 53.3106 43.8528 51.75 43.875C51.3782 43.8787 51.0075 43.8333 50.6475 43.74C49.8691 43.4997 49.1571 43.082 48.5676 42.5197C47.978 41.9575 47.527 41.2661 47.25 40.5ZM10.8675 26.4938C11.5284 25.4414 12.4309 24.5621 13.5 23.9288C13.5 20.25 20.25 14.625 22.5 13.5L7.87502 1.125H7.95377C8.63558 1.12335 9.30205 1.32722 9.86627 1.71L28.125 12.375H30.375L32.625 27V41.625L29.25 36C29.25 31.6463 26.73 27 23.625 27C20.52 27 18 29.6325 18 31.5C18 32.6935 18.4741 33.8381 19.318 34.682C20.162 35.5259 21.3065 36 22.5 36H29.25L24.75 40.5C24.473 41.2661 24.022 41.9575 23.4325 42.5197C22.8429 43.082 22.1309 43.4997 21.3525 43.74C20.9926 43.8333 20.6219 43.8787 20.25 43.875C18.6858 43.852 17.1283 43.6635 15.6038 43.3125C15.3519 43.2557 15.0905 43.2563 14.8389 43.314C14.5873 43.3717 14.3518 43.4852 14.1499 43.6461C13.948 43.807 13.7848 44.0112 13.6723 44.2435C13.5598 44.4759 13.5009 44.7306 13.5 44.9888V45C13.5 45 9.96752 44.2912 8.49377 41.76C8.11895 40.5724 7.91441 39.3376 7.88627 38.0925C7.87691 38.0104 7.87315 37.9277 7.87502 37.845C7.72305 33.848 8.76482 29.8963 10.8675 26.4938Z" fill="#DBD6D0"/>
<path d="M7.87501 1.12506L22.5 13.5001C20.25 14.6251 13.5 20.2501 13.5 23.9288C12.4309 24.5621 11.5284 25.4415 10.8675 26.4938L9.63001 24.8401C9.14316 24.1901 8.907 23.3863 8.96486 22.5763C9.02272 21.7663 9.37072 21.0043 9.94501 20.4301L10.125 20.2501L6.54751 14.5351C5.20917 12.3885 4.4998 9.90963 4.50001 7.38006V4.57881C4.49776 3.67569 4.85014 2.80779 5.48134 2.16186C6.11253 1.51594 6.97208 1.14363 7.87501 1.12506ZM67.5 4.57881V7.38006C67.5002 9.90963 66.7909 12.3885 65.4525 14.5351L61.875 20.2501L62.055 20.4301C62.6293 21.0043 62.9773 21.7663 63.0352 22.5763C63.093 23.3863 62.8569 24.1901 62.37 24.8401L61.1325 26.4938C60.4716 25.4415 59.5691 24.5621 58.5 23.9288C58.5 20.2501 51.75 14.6251 49.5 13.5001L64.125 1.12506C65.0269 1.14678 65.8846 1.52008 66.5152 2.16532C67.1457 2.81056 67.4991 3.67665 67.5 4.57881Z" fill="#FFB9AD"/>
<path d="M30.15 51.75C29.5762 51.4237 29.25 51.0413 29.25 50.625C33.75 50.625 36 46.125 36 46.125C36 46.125 38.25 50.625 42.75 50.625C42.75 51.0413 42.4238 51.4237 41.85 51.75C40.0159 52.5808 38.0114 52.9662 36 52.875C33.9886 52.9662 31.9841 52.5808 30.15 51.75Z" fill="#E6E3DC"/>
<path d="M12.6 53.2789C13.8048 54.319 15.1948 55.1228 16.6973 55.6481L16.4025 55.4737C15.5294 54.9646 14.8031 54.2378 14.2944 53.3644C13.7858 52.491 13.5121 51.5007 13.5 50.49V49.1062C12.22 48.0576 11.1149 46.8121 10.2263 45.4162L8.92352 48.7912C9.01465 48.9499 9.10015 49.1107 9.19577 49.2649C10.1116 50.7741 11.2606 52.1289 12.6 53.2789ZM58.5 49.1062V50.49C58.488 51.5007 58.2143 52.491 57.7056 53.3644C57.1969 54.2378 56.4706 54.9646 55.5975 55.4737L55.3028 55.6481C56.8053 55.1228 58.1953 54.319 59.4 53.2789C60.7393 52.1295 61.8882 50.7756 62.8043 49.2671C62.8999 49.113 62.9854 48.951 63.0765 48.7935L61.7738 45.4185C60.8849 46.8135 59.7799 48.0583 58.5 49.1062Z" fill="#ADA59D"/>
<path d="M16.4025 55.4737L16.6972 55.6481C17.6383 55.9743 18.6263 56.1445 19.6222 56.1521H29.9182C31.8146 57.0522 33.9031 57.4722 36 57.375C38.0976 57.4726 40.187 57.0526 42.084 56.1521H52.38C53.3759 56.1445 54.364 55.9743 55.305 55.6481L55.5998 55.4737C56.4725 54.9643 57.1983 54.2374 57.7066 53.364C58.2148 52.4906 58.4882 51.5005 58.5 50.49V49.1062C56.617 50.7309 54.2355 51.6637 51.75 51.75H41.85C40.0159 52.5807 38.0114 52.9662 36 52.875C33.9886 52.9662 31.9841 52.5807 30.15 51.75H20.25C17.7645 51.6637 15.383 50.7309 13.5 49.1062V50.49C13.512 51.5007 13.7857 52.491 14.2944 53.3644C14.8031 54.2378 15.5294 54.9646 16.4025 55.4737Z" fill="#C2B9B0"/>
<path d="M38.1724 51.0683C38.7925 51.6112 39.4955 52.0514 40.2548 52.3721C40.8107 52.2331 41.3467 52.0241 41.85 51.75C42.4238 51.4237 42.75 51.0413 42.75 50.625C38.25 50.625 36 46.125 36 46.125C36 46.125 33.75 50.625 29.25 50.625C29.25 51.0413 29.5762 51.4237 30.15 51.75C30.6533 52.0241 31.1893 52.2331 31.7453 52.3721C32.5045 52.0514 33.2075 51.6112 33.8276 51.0683C34.4339 50.5524 35.204 50.2692 36 50.2692C36.796 50.2692 37.5661 50.5524 38.1724 51.0683Z" fill="#D48E81"/>
<path d="M39.375 41.625L37.1925 43.3687C37.0379 43.5289 36.8527 43.6563 36.6478 43.7434C36.4429 43.8304 36.2226 43.8752 36 43.8752C35.7774 43.8752 35.5571 43.8304 35.3522 43.7434C35.1473 43.6563 34.9621 43.5289 34.8075 43.3687L32.625 41.625C32.625 40.6575 34.1325 39.375 36 39.375C37.8675 39.375 39.375 40.6575 39.375 41.625Z" fill="#FCA99A"/>
<path d="M36 40.5C36.5785 40.4917 37.1514 40.6128 37.677 40.8546C38.2026 41.0963 38.6674 41.4526 39.0375 41.8973L39.375 41.625C39.375 40.6575 37.8675 39.375 36 39.375C34.1325 39.375 32.625 40.6575 32.625 41.625L32.9625 41.8973C33.3326 41.4526 33.7974 41.0963 34.323 40.8546C34.8486 40.6128 35.4215 40.4917 36 40.5Z" fill="#FFB9AD"/>
<path d="M5.75662 1.92938L15.7804 11.1184C16.1162 11.4262 16.3862 11.7989 16.5742 12.2139C16.7622 12.6289 16.8642 13.0776 16.874 13.5331C16.8839 13.9886 16.8015 14.4413 16.6317 14.8641C16.4619 15.2869 16.2083 15.6709 15.8861 15.993L12.9465 18.9315C12.1833 19.6864 11.1745 20.1423 10.1036 20.2162L10.125 20.25L9.945 20.43C9.3707 21.0042 9.02271 21.7662 8.96485 22.5762C8.90699 23.3863 9.14315 24.19 9.63 24.84L10.8675 26.4937C11.5284 25.4414 12.4309 24.5621 13.5 23.9288C13.5 20.25 20.25 14.625 22.5 13.5L7.875 1.125C7.09818 1.14559 6.35133 1.42918 5.75662 1.92938ZM56.493 15.993C56.1708 15.6709 55.9172 15.2869 55.7474 14.8641C55.5776 14.4413 55.4952 13.9886 55.5051 13.5331C55.5149 13.0776 55.6169 12.6289 55.8049 12.2139C55.9929 11.7989 56.2629 11.4262 56.5987 11.1184L66.4391 2.097C65.8187 1.49161 64.9916 1.14422 64.125 1.125L49.5 13.5C51.75 14.625 58.5 20.25 58.5 23.9288C59.5691 24.5621 60.4716 25.4414 61.1325 26.4937L62.37 24.84C62.8568 24.19 63.093 23.3863 63.0351 22.5762C62.9773 21.7662 62.6293 21.0042 62.055 20.43L61.875 20.25L61.9177 20.1814C60.9775 20.0386 60.1069 19.601 59.4315 18.9315L56.493 15.993Z" fill="#FCA99A"/>
<path d="M43.875 46.125C40.5 46.125 39.375 41.625 39.375 41.625V41.8185C39.3749 42.4152 39.1378 42.9874 38.7158 43.4092L37.7843 44.3408C37.3623 44.7626 37.1252 45.3348 37.125 45.9315V47.7574C37.7934 48.6203 38.6443 49.3248 39.6167 49.8205C40.5891 50.3163 41.6591 50.591 42.75 50.625C47.7225 50.625 50.625 47.61 50.625 43.875L50.6475 43.74C50.6239 43.7344 50.6059 43.722 50.5823 43.7164C48.6516 45.1976 46.3069 46.0396 43.875 46.125ZM33.2843 43.4092C32.8623 42.9874 32.6252 42.4152 32.625 41.8185V41.625C32.625 41.625 31.5 46.125 28.125 46.125C25.6931 46.0396 23.3485 45.1976 21.4178 43.7164C21.3942 43.7164 21.3762 43.7344 21.3525 43.74L21.375 43.875C21.375 47.61 24.2775 50.625 29.25 50.625C30.341 50.591 31.411 50.3163 32.3834 49.8205C33.3558 49.3248 34.2066 48.6203 34.875 47.7574V45.9315C34.8749 45.3348 34.6378 44.7626 34.2158 44.3408L33.2843 43.4092Z" fill="#E6E3DC"/>
<path d="M32.3517 28.0912C32.5665 28.1451 32.7924 28.1343 33.0012 28.0602C33.2099 27.9862 33.3921 27.8522 33.525 27.675L36 24.3754L38.475 27.675C38.608 27.852 38.7902 27.9859 38.9988 28.0599C39.2075 28.1339 39.4334 28.1446 39.6481 28.0908C39.8629 28.037 40.057 27.921 40.2061 27.7574C40.3552 27.5938 40.4528 27.3898 40.4865 27.171L42.7365 12.546C42.7384 12.4889 42.7358 12.4317 42.7287 12.375H40.4865L38.6697 24.1875L36.9 21.825C36.7907 21.6921 36.6533 21.5851 36.4977 21.5116C36.3421 21.4381 36.1721 21.4 36 21.4C35.828 21.4 35.658 21.4381 35.5024 21.5116C35.3468 21.5851 35.2094 21.6921 35.1 21.825L33.3304 24.1875L31.5135 12.375H29.2714C29.2643 12.4317 29.2616 12.4889 29.2635 12.546L31.5135 27.171C31.5472 27.3898 31.6446 27.5939 31.7937 27.7576C31.9428 27.9213 32.1369 28.0374 32.3517 28.0912Z" fill="#514B3F"/>
<path d="M36 19.125C36.2984 19.125 36.5846 19.0065 36.7955 18.7955C37.0065 18.5845 37.125 18.2984 37.125 18V12.375H34.875V18C34.875 18.2984 34.9936 18.5845 35.2045 18.7955C35.4155 19.0065 35.7017 19.125 36 19.125ZM59.625 36C60.3934 36 62.9067 36.1541 62.9899 38.1375C62.9909 38.1752 62.9943 38.2128 63 38.25C63.0015 38.5278 63.1068 38.795 63.2952 38.9992C63.4835 39.2034 63.7414 39.3298 64.0182 39.3536C64.0713 38.9351 64.1032 38.5142 64.1138 38.0925C64.1231 38.0104 64.1269 37.9277 64.125 37.845C64.125 36.9349 64.0699 36.0844 63.9912 35.2575C62.7865 34.2076 61.2209 33.667 59.625 33.75C58.95 33.75 58.5 31.7509 58.5 30.375C58.5 30.0766 58.3815 29.7905 58.1705 29.5795C57.9596 29.3685 57.6734 29.25 57.375 29.25C57.0767 29.25 56.7905 29.3685 56.5795 29.5795C56.3686 29.7905 56.25 30.0766 56.25 30.375C56.25 32.9704 57.1343 36 59.625 36ZM7.97854 39.3244C8.2469 39.2963 8.49666 39.1741 8.68361 38.9795C8.87056 38.785 8.98265 38.5305 9.00004 38.2612C9.007 38.2211 9.01113 38.1805 9.01241 38.1398C9.09341 36.1541 11.6067 36 12.375 36C14.8658 36 15.75 32.9704 15.75 30.375C15.75 30.0766 15.6315 29.7905 15.4205 29.5795C15.2096 29.3685 14.9234 29.25 14.625 29.25C14.3267 29.25 14.0405 29.3685 13.8295 29.5795C13.6186 29.7905 13.5 30.0766 13.5 30.375C13.5 31.7183 13.05 33.75 12.375 33.75C10.7787 33.6679 9.21306 34.2097 8.00891 35.2609C7.93016 36.0844 7.87504 36.9349 7.87504 37.8484C7.87317 37.931 7.87693 38.0137 7.88629 38.0959C7.89416 38.5042 7.93016 38.9149 7.97854 39.3244ZM12.375 50.49C12.3842 51.695 12.7067 52.8768 13.3109 53.9195C13.915 54.9621 14.78 55.8296 15.8209 56.4368C19.8799 58.8881 27.9 63 36 63C44.1 63 52.1202 58.8881 56.1792 56.4356C57.2201 55.8288 58.0852 54.9615 58.6894 53.9191C59.2935 52.8766 59.616 51.6949 59.625 50.49V48.375C59.6183 48.2916 59.6017 48.2092 59.5755 48.1298C59.229 48.4729 58.8735 48.8048 58.5 49.1063C58.1265 49.4078 57.7587 49.6688 57.375 49.9185V50.49C57.3638 51.3074 57.1401 52.1078 56.7259 52.8125C56.3116 53.5173 55.7212 54.1021 55.0125 54.5096C51.1583 56.8406 43.5567 60.75 36 60.75C28.4434 60.75 20.8418 56.8406 16.9875 54.5107C16.2788 54.1031 15.6883 53.518 15.2741 52.8131C14.8599 52.1081 14.6362 51.3076 14.625 50.49V49.9185C14.2414 49.6665 13.8634 49.3999 13.5 49.1063C13.1367 48.8126 12.771 48.4729 12.4245 48.1298C12.3984 48.2092 12.3817 48.2916 12.375 48.375V50.49Z" fill="#514B3F"/>
<path d="M64.755 53.1675L64.2038 51.7162L63.8078 50.6891C63.5763 50.7545 63.3724 50.8933 63.2267 51.0846C63.081 51.276 63.0015 51.5095 63 51.75C63 60.3607 51.8974 66.375 36 66.375C20.1027 66.375 9.00003 60.3607 9.00003 51.75C8.99859 51.5095 8.91903 51.276 8.77334 51.0846C8.62765 50.8933 8.42372 50.7545 8.19228 50.6891L7.79628 51.7162L7.24503 53.1675C7.13253 53.4454 7.06053 53.73 6.96378 54.0124C8.59728 62.8425 19.8484 68.625 36 68.625C52.1516 68.625 63.4028 62.8425 65.0363 54.0124C64.9395 53.7311 64.8619 53.4454 64.755 53.1675Z" fill="#514B3F"/>
<path d="M37.125 47.7574V45.9315C37.1251 45.3348 37.3623 44.7626 37.7842 44.3408L38.7158 43.4092C38.9857 43.133 39.1795 42.7916 39.2783 42.4181L39.933 41.895V41.625C39.933 40.3504 38.1758 38.8125 35.9955 38.8125C33.8153 38.8125 32.058 40.3504 32.058 41.625V41.895L32.7116 42.4159C32.8106 42.7898 33.0043 43.132 33.2741 43.4092L34.2056 44.3408C34.4164 44.5488 34.584 44.7964 34.6989 45.0694C34.8138 45.3424 34.8736 45.6353 34.875 45.9315V47.7574C34.2066 48.6203 33.3558 49.3248 32.3833 49.8205C31.4109 50.3163 30.341 50.591 29.25 50.625C29.25 51.0199 29.5515 51.3832 30.0724 51.6982C31.736 51.4502 33.2649 50.6413 34.4059 49.4055C34.6132 49.1926 34.8611 49.0234 35.1349 48.9079C35.4087 48.7924 35.7028 48.7328 36 48.7328C36.2972 48.7328 36.5913 48.7924 36.8651 48.9079C37.1389 49.0234 37.3868 49.1926 37.5941 49.4055C38.7351 50.6413 40.264 51.4502 41.9276 51.6982C42.4485 51.3832 42.75 51.0232 42.75 50.625C41.659 50.591 40.5891 50.3163 39.6167 49.8205C38.6442 49.3248 37.7934 48.6203 37.125 47.7574ZM34.8075 43.3699L32.625 41.625C32.625 40.6575 34.1325 39.375 36 39.375C37.8675 39.375 39.375 40.6575 39.375 41.625L37.1925 43.3687C37.0379 43.5289 36.8527 43.6563 36.6478 43.7434C36.4429 43.8304 36.2226 43.8752 36 43.8752C35.7774 43.8752 35.5571 43.8304 35.3522 43.7434C35.1473 43.6563 34.9621 43.5301 34.8075 43.3699Z" fill="#514B3F"/>
<path d="M47.25 36H42.75C42.7471 33.6191 43.4477 31.2904 44.7638 29.3062C45.1366 28.6604 45.6594 28.1137 46.2879 27.7123C46.9164 27.311 47.6322 27.0666 48.375 27C51.48 27 54 29.6325 54 31.5C54 32.6935 53.5259 33.8381 52.682 34.682C51.8381 35.5259 50.6935 36 49.5 36H47.25Z" fill="#FFD869"/>
<path d="M51.75 32.625C51.7535 31.8704 51.5663 31.1272 51.2058 30.4643C50.8453 29.8014 50.3232 29.2403 49.6879 28.8331C49.0527 28.4258 48.3248 28.1857 47.572 28.1348C46.8191 28.084 46.0656 28.2242 45.3814 28.5424C45.1594 28.7836 44.9531 29.0387 44.7638 29.3063C43.8391 30.6823 43.2199 32.2406 42.948 33.876C43.1864 34.6993 43.6566 35.4366 44.3025 36H49.5C49.767 35.9969 50.0331 35.9702 50.2954 35.9201C50.7528 35.5016 51.1183 34.9926 51.3687 34.4253C51.6191 33.8581 51.749 33.245 51.75 32.625Z" fill="#392C1C"/>
<path d="M47.25 36C49.114 36 50.625 34.489 50.625 32.625C50.625 30.761 49.114 29.25 47.25 29.25C45.386 29.25 43.875 30.761 43.875 32.625C43.875 34.489 45.386 36 47.25 36Z" fill="#1A1511"/>
<path d="M48.1828 32.2119C48.3643 32.0305 48.3069 31.679 48.0547 31.4268C47.8026 31.1746 47.451 31.1173 47.2696 31.2987C47.0881 31.4802 47.1455 31.8317 47.3977 32.0839C47.6498 32.336 48.0014 32.3934 48.1828 32.2119Z" fill="#F6FAFD"/>
<path d="M50.625 32.625C51.2463 32.625 51.75 32.1213 51.75 31.5C51.75 30.8787 51.2463 30.375 50.625 30.375C50.0037 30.375 49.5 30.8787 49.5 31.5C49.5 32.1213 50.0037 32.625 50.625 32.625Z" fill="#F6FAFD"/>
<path d="M58.5 30.375C57.1838 30.375 54.7166 28.836 52.8919 27.5625C51.6241 26.4991 50.0295 25.9034 48.375 25.875C44.397 25.875 41.625 31.2109 41.625 36C41.625 36.2984 41.7435 36.5845 41.9545 36.7955C42.1655 37.0065 42.4516 37.125 42.75 37.125H49.5C50.9913 37.1232 52.421 36.53 53.4755 35.4755C54.53 34.421 55.1232 32.9913 55.125 31.5C55.1192 31.1171 55.0531 30.7374 54.9293 30.375H58.5ZM49.5 36H42.75C42.75 31.6474 45.2655 27 48.375 27C51.4845 27 54 29.6347 54 31.5C54 32.6935 53.5259 33.8381 52.682 34.682C51.8381 35.5259 50.6935 36 49.5 36Z" fill="#392C1C"/>
<path d="M24.75 36H22.5C21.3065 36 20.1619 35.5259 19.318 34.682C18.4741 33.8381 18 32.6935 18 31.5C18 29.6325 20.52 27 23.625 27C24.3678 27.0666 25.0836 27.311 25.7121 27.7123C26.3406 28.1137 26.8634 28.6604 27.2362 29.3062C28.5524 31.2904 29.2529 33.6191 29.25 36H24.75Z" fill="#FFD869"/>
<path d="M26.6186 28.5424C25.6473 28.0928 24.5473 28.0054 23.5172 28.2959C22.4871 28.5864 21.5948 29.2356 21.0015 30.1264C20.4082 31.0172 20.1529 32.0908 20.2819 33.1533C20.4108 34.2158 20.9155 35.1971 21.7046 35.9201C21.9669 35.9702 22.233 35.9969 22.5 36H27.6975C28.3417 35.436 28.8103 34.6987 29.0475 33.876C28.7769 32.2409 28.1593 30.6827 27.2362 29.3062C27.0469 29.0387 26.8406 28.7836 26.6186 28.5424Z" fill="#392C1C"/>
<path d="M24.75 36C26.614 36 28.125 34.489 28.125 32.625C28.125 30.761 26.614 29.25 24.75 29.25C22.886 29.25 21.375 30.761 21.375 32.625C21.375 34.489 22.886 36 24.75 36Z" fill="#1A1511"/>
<path d="M21.375 32.625C21.9963 32.625 22.5 32.1213 22.5 31.5C22.5 30.8787 21.9963 30.375 21.375 30.375C20.7537 30.375 20.25 30.8787 20.25 31.5C20.25 32.1213 20.7537 32.625 21.375 32.625Z" fill="#F6FAFD"/>
<path d="M17.0707 30.375C16.9469 30.7374 16.8808 31.1171 16.875 31.5C16.8768 32.9913 17.47 34.421 18.5245 35.4755C19.579 36.53 21.0087 37.1232 22.5 37.125H29.25C29.5484 37.125 29.8345 37.0065 30.0455 36.7955C30.2565 36.5845 30.375 36.2984 30.375 36C30.375 31.2109 27.603 25.875 23.625 25.875C21.9701 25.9031 20.3751 26.4989 19.107 27.5625C17.2834 28.836 14.8162 30.375 13.5 30.375H17.0707ZM18 31.5C18 29.6347 20.5155 27 23.625 27C26.7345 27 29.25 31.6474 29.25 36H22.5C21.3065 36 20.1619 35.5259 19.318 34.682C18.4741 33.8381 18 32.6935 18 31.5Z" fill="#392C1C"/>
<path d="M24.4299 32.0484C24.6821 31.7962 24.7394 31.4447 24.558 31.2632C24.3765 31.0818 24.025 31.1391 23.7728 31.3913C23.5207 31.6435 23.4633 31.995 23.6448 32.1764C23.8262 32.3579 24.1777 32.3005 24.4299 32.0484Z" fill="#F6FAFD"/>
<path d="M41.0625 45C41.3732 45 41.625 44.7482 41.625 44.4375C41.625 44.1268 41.3732 43.875 41.0625 43.875C40.7518 43.875 40.5 44.1268 40.5 44.4375C40.5 44.7482 40.7518 45 41.0625 45Z" fill="#B0A8A0"/>
<path d="M39.9375 48.375C40.2482 48.375 40.5 48.1232 40.5 47.8125C40.5 47.5018 40.2482 47.25 39.9375 47.25C39.6268 47.25 39.375 47.5018 39.375 47.8125C39.375 48.1232 39.6268 48.375 39.9375 48.375Z" fill="#B0A8A0"/>
<path d="M38.8125 47.25C39.1232 47.25 39.375 46.9982 39.375 46.6875C39.375 46.3768 39.1232 46.125 38.8125 46.125C38.5018 46.125 38.25 46.3768 38.25 46.6875C38.25 46.9982 38.5018 47.25 38.8125 47.25Z" fill="#B0A8A0"/>
<path d="M32.0625 47.25C32.3732 47.25 32.625 46.9982 32.625 46.6875C32.625 46.3768 32.3732 46.125 32.0625 46.125C31.7518 46.125 31.5 46.3768 31.5 46.6875C31.5 46.9982 31.7518 47.25 32.0625 47.25Z" fill="#B0A8A0"/>
<path d="M32.0625 45C32.3732 45 32.625 44.7482 32.625 44.4375C32.625 44.1268 32.3732 43.875 32.0625 43.875C31.7518 43.875 31.5 44.1268 31.5 44.4375C31.5 44.7482 31.7518 45 32.0625 45Z" fill="#B0A8A0"/>
<path d="M29.8125 48.375C30.1232 48.375 30.375 48.1232 30.375 47.8125C30.375 47.5018 30.1232 47.25 29.8125 47.25C29.5018 47.25 29.25 47.5018 29.25 47.8125C29.25 48.1232 29.5018 48.375 29.8125 48.375Z" fill="#B0A8A0"/>
<path d="M29.8125 43.875C30.1232 43.875 30.375 43.6232 30.375 43.3125C30.375 43.0018 30.1232 42.75 29.8125 42.75C29.5018 42.75 29.25 43.0018 29.25 43.3125C29.25 43.6232 29.5018 43.875 29.8125 43.875Z" fill="#B0A8A0"/>
<path d="M18 53.1562C17.9698 53.1563 17.9397 53.1514 17.9111 53.1416C17.8404 53.118 17.782 53.0673 17.7487 53.0007C17.7154 52.934 17.7099 52.8568 17.7334 52.7861C20.025 45.9225 29.9531 45.8438 30.375 45.8438C30.4496 45.8438 30.5211 45.8734 30.5739 45.9261C30.6266 45.9789 30.6562 46.0504 30.6562 46.125C30.6562 46.1996 30.6266 46.2711 30.5739 46.3239C30.5211 46.3766 30.4496 46.4062 30.375 46.4062C30.276 46.4062 20.4255 46.4861 18.2666 52.9639C18.248 53.0199 18.2122 53.0686 18.1644 53.1031C18.1165 53.1376 18.059 53.1562 18 53.1562ZM21.375 57.6562C21.3004 57.6562 21.2289 57.6266 21.1761 57.5739C21.1234 57.5211 21.0938 57.4496 21.0938 57.375C21.0938 50.4855 30.2141 48.1252 30.3064 48.1027C30.3429 48.0912 30.3814 48.0873 30.4196 48.0912C30.4577 48.0951 30.4946 48.1067 30.5281 48.1254C30.5615 48.1441 30.5908 48.1694 30.6142 48.1998C30.6375 48.2302 30.6543 48.2651 30.6637 48.3022C30.6731 48.3394 30.6748 48.3781 30.6686 48.4159C30.6625 48.4537 30.6487 48.4899 30.6281 48.5222C30.6075 48.5545 30.5805 48.5823 30.5488 48.6038C30.5171 48.6253 30.4813 48.6401 30.4436 48.6473C30.3548 48.6698 21.6562 50.9254 21.6562 57.375C21.6562 57.4496 21.6266 57.5211 21.5739 57.5739C21.5211 57.6266 21.4496 57.6562 21.375 57.6562ZM30.375 44.1562H16.875C16.8004 44.1562 16.7289 44.1266 16.6761 44.0739C16.6234 44.0211 16.5938 43.9496 16.5938 43.875C16.5938 43.8004 16.6234 43.7289 16.6761 43.6761C16.7289 43.6234 16.8004 43.5938 16.875 43.5938H30.375C30.4496 43.5938 30.5211 43.6234 30.5739 43.6761C30.6266 43.7289 30.6562 43.8004 30.6562 43.875C30.6562 43.9496 30.6266 44.0211 30.5739 44.0739C30.5211 44.1266 30.4496 44.1562 30.375 44.1562ZM54 53.1562C53.941 53.1562 53.8835 53.1376 53.8357 53.1031C53.7878 53.0686 53.752 53.0199 53.7334 52.9639C51.5723 46.4805 41.724 46.4062 41.625 46.4062C41.5504 46.4062 41.4789 46.3766 41.4261 46.3239C41.3734 46.2711 41.3438 46.1996 41.3438 46.125C41.3438 46.0504 41.3734 45.9789 41.4261 45.9261C41.4789 45.8734 41.5504 45.8438 41.625 45.8438C42.0469 45.8438 51.975 45.9225 54.2666 52.7861C54.2901 52.8568 54.2846 52.934 54.2513 53.0007C54.218 53.0673 54.1596 53.118 54.0889 53.1416C54.0603 53.1514 54.0302 53.1563 54 53.1562ZM50.625 57.6562C50.5504 57.6562 50.4789 57.6266 50.4261 57.5739C50.3734 57.5211 50.3438 57.4496 50.3438 57.375C50.3438 50.9254 41.6452 48.6698 41.5564 48.6473C41.4848 48.6291 41.4232 48.5836 41.3848 48.5205C41.3465 48.4573 41.3346 48.3816 41.3516 48.3098C41.3602 48.2741 41.3757 48.2405 41.3974 48.2109C41.4191 48.1813 41.4464 48.1563 41.4778 48.1373C41.5092 48.1184 41.544 48.1059 41.5803 48.1005C41.6166 48.0952 41.6536 48.0971 41.6891 48.1061C41.7814 48.1286 50.9017 50.4889 50.9017 57.3784C50.9009 57.4516 50.8715 57.5216 50.8198 57.5735C50.7681 57.6254 50.6982 57.6551 50.625 57.6562ZM55.125 44.1562H41.625C41.5504 44.1562 41.4789 44.1266 41.4261 44.0739C41.3734 44.0211 41.3438 43.9496 41.3438 43.875C41.3438 43.8004 41.3734 43.7289 41.4261 43.6761C41.4789 43.6234 41.5504 43.5938 41.625 43.5938H55.125C55.1996 43.5938 55.2711 43.6234 55.3239 43.6761C55.3766 43.7289 55.4062 43.8004 55.4062 43.875C55.4062 43.9496 55.3766 44.0211 55.3239 44.0739C55.2711 44.1266 55.1996 44.1562 55.125 44.1562Z" fill="#392C1C"/>
</svg>
