<svg width="90" height="90" viewBox="0 0 90 90" fill="none" xmlns="http://www.w3.org/2000/svg">
<path d="M66.697 56.1488L68.9062 50.625V22.5C68.9062 22.5 57.6562 12.6562 45 12.6562C32.3438 12.6562 21.0938 22.5 21.0938 22.5V50.625L23.303 56.1488H66.697Z" fill="#D3843D"/>
<path d="M47.8125 43.5938V23.9062C47.8125 23.1603 47.5162 22.445 46.9887 21.9175C46.4613 21.3901 45.7459 21.0938 45 21.0938C44.2541 21.0938 43.5387 21.3901 43.0113 21.9175C42.4838 22.445 42.1875 23.1603 42.1875 23.9062V43.5938C38.5439 53.3095 26.5177 55.6875 23.303 56.1488L29.5312 71.7188C30.9262 75.067 38.5594 78.75 42.1875 78.75H47.8125C51.4406 78.75 59.0737 75.067 60.4687 71.7188L66.697 56.1488C63.4823 55.6875 51.4561 53.3095 47.8125 43.5938Z" fill="#E8E7D6"/>
<path d="M45 73.125C46.4918 73.125 47.9226 72.5324 48.9775 71.4775C50.0324 70.4226 50.625 68.9918 50.625 67.5V66.0938C46.7423 66.0938 45 64.2052 45 61.875C45 64.2052 43.2577 66.0938 39.375 66.0938V67.5C39.375 68.9918 39.9676 70.4226 41.0225 71.4775C42.0774 72.5324 43.5082 73.125 45 73.125Z" fill="#F98C96"/>
<path d="M21.0937 22.5L7.03125 33.75C2.35125 38.1502 5.0625 44.1211 7.03125 47.8125C9.53578 52.522 11.25 63.8016 11.25 68.9062C11.25 77.8922 21.0937 78.442 21.0937 60.4688V22.5Z" fill="#AD6327"/>
<path d="M43.5938 63.2812H46.4062V68.9062H43.5938V63.2812Z" fill="#DB527D"/>
<path d="M50.625 54.8438C50.4967 56.2924 49.8628 57.6498 48.8344 58.6782C47.806 59.7066 46.4487 60.3404 45 60.4688C43.5513 60.3404 42.194 59.7066 41.1656 58.6782C40.1372 57.6498 39.5033 56.2924 39.375 54.8438C39.375 52.5136 41.8936 52.0312 45 52.0312C48.1064 52.0312 50.625 52.5136 50.625 54.8438Z" fill="#394D5C"/>
<path d="M33.75 43.5938C35.3033 43.5938 36.5625 42.3346 36.5625 40.7812C36.5625 39.2279 35.3033 37.9688 33.75 37.9688C32.1967 37.9688 30.9375 39.2279 30.9375 40.7812C30.9375 42.3346 32.1967 43.5938 33.75 43.5938Z" fill="#143441"/>
<path d="M68.9062 22.5L82.9688 33.75C87.6488 38.1502 84.9375 44.1211 82.9688 47.8125C80.4642 52.522 78.75 63.8016 78.75 68.9062C78.75 77.8922 68.9062 78.442 68.9062 60.4688V22.5Z" fill="#AD6327"/>
<path d="M56.25 43.5938C57.8033 43.5938 59.0625 42.3346 59.0625 40.7812C59.0625 39.2279 57.8033 37.9688 56.25 37.9688C54.6967 37.9688 53.4375 39.2279 53.4375 40.7812C53.4375 42.3346 54.6967 43.5938 56.25 43.5938Z" fill="#143441"/>
<path d="M56.25 61.875C56.25 63.2025 53.8453 64.6875 50.625 64.6875C49.0486 64.6875 46.4062 64.3219 46.4062 61.875H43.5938C43.5938 64.3219 40.9514 64.6875 39.375 64.6875C36.1547 64.6875 33.75 63.2025 33.75 61.875H30.9375C30.9375 65.0292 34.6444 67.5 39.375 67.5C40.4033 67.5761 41.436 67.4339 42.4054 67.0828C43.3748 66.7316 44.2591 66.1794 45 65.4623C45.7409 66.1794 46.6251 66.7316 47.5946 67.0828C48.564 67.4339 49.5967 67.5761 50.625 67.5C55.3556 67.5 59.0625 65.0292 59.0625 61.875H56.25Z" fill="#143441"/>
</svg>
