<svg width="250" height="195" viewBox="0 0 250 195" fill="none" xmlns="http://www.w3.org/2000/svg">
<path fill-rule="evenodd" clip-rule="evenodd" d="M158.621 1.42874C189.702 9.0259 196.139 50.9138 219.826 72.4772C239.512 90.3982 270.461 93.2784 284.433 115.962C300.296 141.718 304.923 173.204 300.292 203.118C295.084 236.759 287.729 278.239 257.053 292.819C225.889 307.63 192.04 278.99 158.621 270.451C135.251 264.48 110.626 264.347 90.9402 250.375C71.0839 236.283 61.934 213.344 49.0251 192.667C30.9553 163.724 -4.32459 139.226 0.437664 105.414C5.15984 71.8867 42.8358 54.6808 71.0743 36.1176C97.9746 18.4341 127.371 -6.20972 158.621 1.42874Z" fill="#88BD88"/>
</svg>
