<svg width="234" height="196" viewBox="0 0 234 196" fill="none" xmlns="http://www.w3.org/2000/svg">
<path fill-rule="evenodd" clip-rule="evenodd" d="M164.367 1.97684C196.477 9.8298 203.127 53.1281 227.598 75.4175C247.935 93.9419 279.91 96.919 294.344 120.367C310.733 146.99 315.513 179.536 310.729 210.457C305.348 245.231 297.75 288.107 266.057 303.178C233.862 318.488 198.892 288.884 164.367 280.058C140.223 273.885 114.782 273.747 94.4443 259.305C73.9306 244.738 64.4776 221.027 51.1413 199.654C32.4732 169.737 -3.97493 144.414 0.945015 109.464C5.82356 74.8072 44.7471 57.0219 73.9206 37.8337C101.712 19.5548 132.082 -5.9188 164.367 1.97684Z" stroke="black" stroke-dasharray="5 5"/>
</svg>
