<svg width="58" height="58" viewBox="0 0 58 58" fill="none" xmlns="http://www.w3.org/2000/svg">
<path d="M28.4738 1.10984e-05C27.8417 0.00651893 27.2463 0.297745 26.8384 0.804542L0 34.0563L2.44952 36.0336L28.5068 3.74364L55.5895 36.0549L57.9999 34.0336L30.123 0.774579C29.7065 0.275509 29.1003 -0.0020226 28.4738 1.10984e-05Z" fill="black"/>
<path d="M28.9612 35.1895C29.1227 35.1351 29.3275 34.8701 29.3381 34.702C29.575 30.6469 26.2266 25.2411 25.0207 23.4362C24.05 23.8232 23.1054 24.4486 22.2333 25.4017C22.2333 25.4017 20.4918 26.5704 19.874 32.2489C23.1313 36.4673 27.1787 35.7775 28.9612 35.1895Z" fill="#F7763D"/>
<path d="M41.8793 27.9919L36.543 26.6893C36.543 26.6893 36.3909 25.4019 34.8777 24.8728C33.7747 24.4863 29.9744 22.3021 26.2353 23.0736C27.6489 25.2254 30.7937 30.5294 30.5451 34.7718C30.5081 35.4389 29.9778 36.128 29.3403 36.3387C28.7275 36.5426 27.6277 36.8249 26.291 36.8249C24.3544 36.8249 21.9219 36.2293 19.7305 33.9395C19.6876 34.6671 19.663 35.4542 19.6587 36.3058C19.6341 40.6981 14.0548 44.8627 14.0548 44.8627L13.3116 46.4028C14.8284 49.6868 17.206 52.4937 20.1579 54.5308C20.2917 52.433 20.8178 50.7896 21.427 49.5546C22.581 47.209 24.1993 45.9071 25.0251 45.3563C25.2027 40.515 26.7741 39.1001 28.085 38.7766C28.2839 38.7272 28.4914 38.7228 28.6923 38.7638C28.8932 38.8047 29.0824 38.89 29.2461 39.0134C29.6261 39.2971 29.8706 39.7652 29.8954 40.2678C29.9628 41.5691 30.7319 42.4826 31.0966 42.8454C31.688 42.9005 32.2526 42.9942 32.784 43.123L32.8328 42.6665L33.239 38.7222C33.3079 38.0565 33.9062 37.4953 34.5685 37.4004C37.0835 37.0341 42.6871 35.5443 43.0512 29.4906C43.0931 28.8228 42.5292 28.1513 41.8793 27.9919ZM33.5654 29.3981C33.1889 29.3981 32.8831 29.0937 32.8831 28.7168C32.8831 28.3399 33.1889 28.0355 33.5654 28.0355C33.6549 28.0354 33.7436 28.0529 33.8263 28.0871C33.909 28.1213 33.9842 28.1714 34.0475 28.2347C34.1109 28.298 34.1611 28.3732 34.1953 28.4559C34.2295 28.5386 34.247 28.6273 34.2469 28.7168C34.2456 29.093 33.942 29.3981 33.5654 29.3981Z" fill="#F7763D"/>
<path d="M36.5445 47.423C36.3428 45.7067 33.9201 44.2925 30.7895 44.0916C30.7895 44.0916 29.1273 42.8137 29.0158 40.608C28.9974 40.274 28.7478 39.9421 28.4237 40.0221C27.5871 40.2279 26.1668 41.3019 26.096 46.2066C26.096 46.2066 21.5462 48.502 21.2175 55.1195C24.1339 56.8717 27.5325 57.8996 31.1601 57.9593L31.1194 57.0114C31.1044 56.6774 31.3466 56.3112 31.6592 56.1942L35.5346 54.7408C35.5346 54.7408 37.352 54.8428 38.108 53.4783C38.4908 52.7905 38.846 52.3099 39.1076 52.0002C39.3217 51.7454 39.3183 51.3813 39.0788 51.1485C38.287 50.3842 36.6953 48.7056 36.5445 47.423ZM34.2456 49.0843C34.1562 49.0844 34.0676 49.0668 33.985 49.0327C33.9023 48.9985 33.8272 48.9483 33.764 48.8851C33.7008 48.8219 33.6506 48.7468 33.6164 48.6642C33.5822 48.5815 33.5647 48.493 33.5647 48.4035C33.5646 48.314 33.582 48.2253 33.6162 48.1426C33.6503 48.0598 33.7004 47.9846 33.7637 47.9212C33.8269 47.8578 33.902 47.8076 33.9847 47.7733C34.0674 47.739 34.1561 47.7213 34.2456 47.7213C34.3352 47.7212 34.424 47.7387 34.5069 47.7729C34.5897 47.8072 34.665 47.8574 34.7283 47.9208C34.7917 47.9842 34.842 48.0595 34.8762 48.1423C34.9104 48.2251 34.928 48.3139 34.9279 48.4035C34.9279 48.4931 34.9103 48.5817 34.876 48.6645C34.8417 48.7472 34.7914 48.8223 34.7281 48.8855C34.6647 48.9488 34.5894 48.9989 34.5066 49.033C34.4239 49.0671 34.3351 49.0845 34.2456 49.0843Z" fill="black"/>
</svg>
