<svg width="102" height="102" viewBox="0 0 102 102" fill="none" xmlns="http://www.w3.org/2000/svg">
<g clip-path="url(#clip0_1_2562)">
<circle cx="51" cy="51" r="41.2857" fill="white"/>
<path d="M102 51C102 47.9323 100.837 45.1351 98.9298 43.0214C97.8196 41.817 97.018 40.3613 96.5937 38.7792C96.1695 37.197 96.1352 35.5356 96.4938 33.9374C97.091 31.1537 96.6991 28.149 95.1654 25.4928C93.6316 22.8367 91.2255 20.9952 88.5174 20.1193C86.9536 19.6309 85.5316 18.7707 84.3731 17.6124C83.2145 16.4541 82.354 15.0323 81.8651 13.4687C80.9909 10.7597 79.1492 8.35366 76.4926 6.81983C73.8361 5.2858 70.8316 4.89482 68.0481 5.48986C66.4498 5.84918 64.7881 5.81549 63.2056 5.39168C61.6232 4.96786 60.1671 4.16656 58.9623 3.05649C54.7018 -0.999778 47.2685 -0.996988 43.007 3.0549C41.8026 4.16542 40.3468 4.96726 38.7645 5.39167C37.1822 5.81607 35.5205 5.85038 33.922 5.49165C31.1389 4.89482 28.1344 5.2858 25.4779 6.81983C22.8213 8.35366 20.9796 10.7597 20.1036 13.4687C19.6154 15.0322 18.7554 16.4541 17.5972 17.6124C16.439 18.7707 15.0172 19.631 13.4537 20.1193C10.745 20.9952 8.33892 22.8367 6.80509 25.4928C5.27145 28.149 4.87948 31.1539 5.47492 33.9374C5.83418 35.5357 5.80049 37.1973 5.37675 38.7797C4.95301 40.3622 4.15185 41.8182 3.04195 43.0232C-1.01512 47.2845 -1.01213 54.7167 3.04076 58.9788C4.15104 60.1832 4.95268 61.6388 5.37695 63.221C5.80121 64.8031 5.83544 66.4646 5.47671 68.0628C4.87948 70.8465 5.27145 73.8512 6.80509 76.5074C8.33892 79.1635 10.745 81.0052 13.4531 81.8811C15.017 82.3693 16.4391 83.2294 17.5977 84.3877C18.7563 85.546 19.6168 86.968 20.1054 88.5317C20.9796 91.2405 22.8213 93.6467 25.4779 95.1806C28.1344 96.7146 31.1389 97.1056 33.9224 96.5103C35.5208 96.1511 37.1824 96.1848 38.7649 96.6087C40.3473 97.0325 41.8034 97.8338 43.0082 98.9439C47.269 103 54.7028 102.998 58.9635 98.9439C60.1682 97.8339 61.6241 97.0325 63.2063 96.6084C64.7886 96.1843 66.4501 96.1501 68.0485 96.5087C70.8316 97.1056 73.8361 96.7146 76.4926 95.1806C79.1492 93.6467 80.9909 91.2405 81.8669 88.5317C82.3551 86.9679 83.2151 85.5458 84.3732 84.3873C85.5314 83.2287 86.9532 82.3682 88.5168 81.8795C91.2255 81.0054 93.6316 79.1637 95.1654 76.5076C96.6991 73.8514 97.091 70.8467 96.4956 68.063C96.1363 66.4647 96.17 64.8031 96.5938 63.2207C97.0175 61.6382 97.8187 60.1821 98.9286 58.9772C100.837 56.8649 102 54.0677 102 51ZM34.3329 48.4319L29.578 56.5813C27.7332 59.7462 26.7607 63.3436 26.7598 67.0069C26.6142 70.9669 20.9278 70.9687 20.7815 67.0085V67.0069C20.7829 62.2849 22.0364 57.6476 24.4143 53.5681L29.1693 45.4185C30.5042 43.1284 31.3871 40.6034 31.77 37.9805H22.1697C18.2079 37.8334 18.2109 32.1479 22.1697 32.0022H34.9766C36.6274 32.0022 37.9657 33.3405 37.9657 34.9913C37.9647 39.714 36.7111 44.3518 34.3329 48.4319ZM50.9853 44.761C56.1642 44.761 60.3779 48.9748 60.3779 54.1538V60.8452C59.9043 73.2916 42.0619 73.2821 41.5926 60.8452V60.7492C41.7396 56.7874 47.4252 56.7904 47.5709 60.7492V60.8452C47.743 65.3696 54.2291 65.366 54.3997 60.8452V54.1538C54.3997 52.2712 52.8678 50.7393 50.9853 50.7393H44.5817C42.9309 50.7393 41.5926 49.401 41.5926 47.7502V34.9915C41.5926 33.3407 42.9309 32.0024 44.5817 32.0024H57.3888C61.3506 32.1494 61.3476 37.835 57.3888 37.9807H47.5709V44.761H50.9853ZM65.6056 34.9915C65.7526 31.0297 71.4382 31.0327 71.5839 34.9915V38.1933C71.4368 42.1551 65.7512 42.1521 65.6056 38.1933V34.9915ZM84.3905 67.0087C84.2435 70.9705 78.5579 70.9675 78.4123 67.0087V63.8071C78.5593 59.8453 84.2449 59.8483 84.3905 63.8071V67.0087ZM84.1769 36.1017L71.37 68.1188C70.7569 69.6515 69.0174 70.397 67.4845 69.784C65.9517 69.1708 65.2062 67.4313 65.8194 65.8985L78.6263 33.8814C79.2395 32.3487 80.9789 31.6032 82.5118 32.2162C84.0444 32.8294 84.7899 34.5689 84.1769 36.1017Z" fill="#F7763D"/>
</g>
<defs>
<clipPath id="clip0_1_2562">
<rect width="102" height="102" fill="white"/>
</clipPath>
</defs>
</svg>
