<svg width="85" height="98" viewBox="0 0 85 98" fill="none" xmlns="http://www.w3.org/2000/svg">
<path fill-rule="evenodd" clip-rule="evenodd" d="M86.2696 4.12811C96.8188 8.6634 106.857 14.6568 113.206 24.2224C120.53 35.2574 127.443 48.5178 124.258 61.3627C121.074 74.198 108.572 82.319 97.1447 88.9776C87.2161 94.7628 75.7879 95.6433 64.3096 96.2929C53.0465 96.9304 39.4098 100.728 31.486 92.6936C23.387 84.4815 32.9372 69.445 27.6994 59.1718C21.5625 47.135 0.18302 44.4437 0.00131963 30.9403C-0.167073 18.426 15.9754 12.1344 26.9865 6.18639C36.2184 1.19939 46.6032 0.463365 57.0947 0.0991051C67.1506 -0.250033 77.0229 0.152753 86.2696 4.12811Z" fill="#CCEAFA"/>
</svg>
