<svg width="498" height="77" viewBox="0 0 498 77" fill="none" xmlns="http://www.w3.org/2000/svg">
<path fill-rule="evenodd" clip-rule="evenodd" d="M186.822 267.078C151.365 252.035 112.502 248.467 81.5229 225.518C45.4395 198.789 4.93373 164.064 0.354901 128.947C-4.24186 93.6925 36.9317 77.8738 59.1769 54.1375C77.9815 34.0726 87.5834 2.09472 121.127 0.0801855C155.665 -1.99402 191.014 36.7974 227.882 44.0056C260.727 50.4271 285.797 31.7917 318.674 38.7028C361.068 47.6144 408.336 59.1921 441.379 88.8849C475.225 119.299 488.015 160.067 494.137 196.377C500.278 232.795 499.624 270.976 476.107 294.852C453.363 317.944 410.068 319.812 370.524 321.878C338.473 323.552 304.399 315.779 270.293 305.605C241.066 296.886 215.428 279.214 186.822 267.078Z" fill="#CCEAFA"/>
</svg>
