<svg width="54" height="56" viewBox="0 0 54 56" fill="none" xmlns="http://www.w3.org/2000/svg">
<path d="M51.8544 30.8991C54.7894 35.7537 52.3326 42.1365 47.1103 44.3497C45.5565 45.0087 43.8875 46.0041 42.2759 47.2911C40.6908 48.5569 39.3697 49.9373 38.3883 51.2849C34.8354 56.1649 27.3925 57.0176 23.4047 52.0239C21.7675 49.9737 21.1879 47.4206 21.5917 45.0212C21.5917 45.0212 22.4959 40.0746 20.6805 33.3317C19.721 29.995 20.7846 26.2603 23.6663 23.959C26.5489 21.6571 30.4256 21.4452 33.4674 23.119C38.4088 25.7295 42.6109 26.3868 44.094 26.5463C47.1567 26.5055 50.1092 28.018 51.8544 30.8991ZM10.0385 34.5254C14.0414 36.3136 16.2127 40.1688 14.8873 43.1364C13.5619 46.1038 9.24155 47.06 5.23779 45.2724C1.23486 43.4842 -0.936472 39.629 0.388972 36.6615C1.71359 33.6931 6.03389 32.737 10.0385 34.5254ZM18.222 0.579952C20.8425 -1.04927 25.1123 0.87972 27.5455 4.79428C29.8033 8.42923 29.9611 13.3395 27.194 15.019C24.5743 16.6491 20.3046 14.7185 17.8714 10.804C15.6563 7.23984 15.413 2.28487 18.222 0.579952ZM12.0962 15.3859C13.7795 17.0468 14.9204 19.1441 15.2305 21.14C15.498 22.8643 15.1646 24.6312 13.8204 25.7047C11.5395 27.5262 7.17657 26.5323 4.09787 23.4902C2.41693 21.8303 1.27364 19.7319 0.963529 17.736C0.699119 16.0319 1.01598 14.2585 2.37417 13.1739C4.65524 11.3524 9.01749 12.3437 12.0962 15.3859ZM41.1783 4.09317C44.3661 3.45805 47.6455 6.42843 48.5039 10.7277C49.3614 15.0278 47.4732 19.0295 44.2861 19.6656C41.0989 20.3016 37.8196 17.3312 36.9612 13.032C36.1029 8.73104 37.991 4.72929 41.1783 4.09317Z" fill="#519BC2"/>
</svg>
