<svg width="93" height="191" viewBox="0 0 93 191" fill="none" xmlns="http://www.w3.org/2000/svg">
<path fill-rule="evenodd" clip-rule="evenodd" d="M-69.7248 36.5979C-59.8187 24.0792 -55.1183 4.60688 -39.6487 0.582253C-24.0678 -3.47134 -11.2065 14.8858 4.74429 17.2238C23.1912 19.9276 45.5236 2.7136 59.47 15.1103C73.0406 27.1729 56.9768 50.9363 62.2072 68.3015C68.34 88.6628 97.1792 102.667 92.0462 123.264C87.128 143 57.5752 142.549 40.8299 154.084C24.5311 165.312 14.7289 187.241 -4.89083 190.041C-24.6972 192.867 -45.8361 182.922 -59.677 168.428C-72.5054 154.993 -68.364 133.381 -75.397 116.204C-81.5191 101.252 -99.2836 90.5877 -98.137 74.4964C-96.9904 58.4048 -79.7246 49.2351 -69.7248 36.5979Z" fill="#B8DFF5"/>
</svg>
