<svg width="52" height="52" viewBox="0 0 52 52" fill="none" xmlns="http://www.w3.org/2000/svg">
<path d="M30.0625 30.6086C30.6231 30.6086 31.0781 30.1536 31.0781 29.5929C31.0781 29.0323 30.6231 28.5773 30.0625 28.5773C29.5018 28.5773 29.0468 29.0323 29.0468 29.5929C29.0468 30.1536 29.5018 30.6086 30.0625 30.6086Z" fill="#519BC2"/>
<path d="M17.99 26.343C15.7048 31.5842 12.583 34.3579 12.5531 34.3841L12.5423 34.3937C10.7009 36.0423 9.64491 38.4041 9.64491 40.8733C9.64491 43.8918 11.0823 46.5169 13.5759 48.1802C15.8992 49.7302 18.7788 50.195 21.4758 49.4555C22.8274 49.0852 24.3918 48.8894 26.0001 48.8894C27.6356 48.8894 29.2231 49.0917 30.5911 49.4744C31.9137 49.8444 33.3004 49.9255 34.6572 49.7122C36.0139 49.4989 37.3089 48.9962 38.4541 48.2382C40.9763 46.5716 42.4386 43.9218 42.4386 40.8733C42.4386 38.1921 41.2315 35.7073 39.1239 34.0456C38.1719 33.0941 35.8631 30.5187 34.0416 26.342C32.6872 23.0922 29.5377 20.9928 26.0154 20.9928C22.4938 20.9928 19.3447 23.0926 17.99 26.343ZM32.1694 27.1299L32.1761 27.1458C34.1653 31.711 36.7266 34.5294 37.7353 35.5293C37.7643 35.558 37.795 35.585 37.8271 35.61C39.4669 36.8841 40.4073 38.8025 40.4073 40.8733C40.4073 43.2362 39.2767 45.26 37.3342 46.5435C35.5037 47.7529 33.2455 48.1082 31.1384 47.5184C29.5945 47.0864 27.8178 46.8582 25.9999 46.8582C24.2128 46.8582 22.4628 47.079 20.9387 47.4967C18.8093 48.0805 16.5365 47.7138 14.7029 46.4906C12.7885 45.2134 11.676 43.2168 11.676 40.8733C11.676 38.9828 12.484 37.1742 13.893 35.9106C14.1097 35.7206 17.4056 32.7698 19.8554 27.1468L19.8621 27.1309C20.8989 24.6362 23.314 23.0242 26.0152 23.0242C28.7173 23.024 31.1329 24.6356 32.1694 27.1299Z" fill="#519BC2"/>
<path d="M31.1269 33.729C32.6724 36.1018 34.1377 37.6821 34.8738 38.413C35.2717 38.808 35.9148 38.8059 36.3102 38.4078C36.7054 38.0098 36.7031 37.3667 36.305 36.9714C35.6262 36.2974 34.2721 34.836 32.8291 32.6205C32.523 32.1505 31.8939 32.0174 31.4238 32.3236C30.9536 32.6299 30.8208 33.2591 31.1269 33.729ZM16.9302 2.20218C15.4102 2.38205 14.0588 3.3798 13.1243 5.0116C12.149 6.71603 11.7422 8.98158 12.008 11.227C12.8501 18.3613 19.4916 21.6603 22.7084 16.0412C23.6843 14.3354 24.0911 12.0699 23.8246 9.82607C23.3091 5.45756 20.2963 1.79796 16.9302 2.20218ZM20.9456 15.0324C18.6049 19.1217 14.5784 15.674 14.0253 10.9887C13.8095 9.16592 14.1238 7.35516 14.8873 6.02073C15.4433 5.04949 16.3105 4.20489 17.4284 4.20489C19.4274 4.20489 21.4327 6.88807 21.8077 10.0649C22.0239 11.8863 21.7097 13.6968 20.9456 15.0324ZM7.95814 17.2448C6.20933 16.387 4.41838 16.3427 2.91526 17.12C1.41213 17.8966 0.412552 19.3828 0.100349 21.3051C-0.193674 23.1153 0.163623 25.1171 1.10633 26.9423C2.04954 28.7672 3.47568 30.2169 5.12231 31.0245C6.75645 31.826 8.56691 31.9758 10.1649 31.1502C11.6682 30.3736 12.6679 28.8872 12.98 26.9648C13.274 25.1547 12.9167 23.1528 11.974 21.3278C11.0309 19.5025 9.60467 18.0524 7.95814 17.2448ZM10.9751 26.6393C10.7687 27.9107 10.1498 28.8717 9.23254 29.3456C8.31544 29.8197 7.17347 29.7682 6.01677 29.2008C4.75841 28.5836 3.65544 27.4502 2.91089 26.0098C2.16674 24.5691 1.88054 23.0141 2.10519 21.6307C2.31167 20.3593 2.93059 19.3984 3.8478 18.9245L3.84811 18.9243C4.86231 18.4 6.03698 18.5649 7.06358 19.0685C8.32183 19.6857 9.4248 20.8192 10.1694 22.2602C10.9135 23.7008 11.1997 25.2561 10.9751 26.6393ZM34.594 2.19304C31.5147 2.19304 28.7044 5.55466 28.1967 9.84608C27.6552 14.4261 29.9655 18.8997 33.6171 18.8997C36.696 18.8997 39.5065 15.5381 40.0154 11.2466C40.5562 6.67489 38.2528 2.19304 34.594 2.19304ZM37.9983 11.0077C37.608 14.2987 35.4266 17.1214 33.3694 16.8545L33.3581 16.8531C32.4346 16.7444 31.5586 16.004 30.9549 14.8219C30.2834 13.5074 30.0134 11.7808 30.2138 10.0848C30.5898 6.90808 32.5957 4.22419 34.5941 4.22419C34.6882 4.22419 34.7692 4.22876 34.8418 4.2382C35.9248 4.35856 36.7631 5.30502 37.2569 6.27138C37.9286 7.5857 38.1988 9.31206 37.9983 11.0077ZM39.0201 26.969C39.67 30.9713 43.2813 32.793 46.8778 31.0287C50.2841 29.3579 52.5081 25.0552 51.8998 21.3091C51.2575 17.3537 47.6819 15.4628 44.042 17.2489C40.6367 18.9194 38.4117 23.2226 39.0201 26.969ZM44.9366 19.0723C47.3264 17.9 49.4677 19.0038 49.8949 21.6346C50.3585 24.489 48.5957 27.9235 45.9833 29.2049C44.8268 29.7721 43.6848 29.8234 42.7676 29.3496V29.3497C41.8504 28.8757 41.2314 27.9146 41.0251 26.6434C40.5607 23.7838 42.3288 20.3518 44.9366 19.0723Z" fill="#519BC2"/>
</svg>
